# VRBrush Export
# Generated: 2026/02/06 5:42:46

o Stroke_0
v 0.276705 0.855929 -0.040407
v 0.272495 0.969350 -0.013006
v 0.284029 1.028128 -0.089376
v 0.297848 0.993881 -0.180510
v 0.300261 0.891915 -0.196085
v 0.291203 0.833486 -0.136068
v 0.269145 0.856852 -0.041006
v 0.265989 0.970264 -0.013430
v 0.280708 1.029017 -0.089270
v 0.296622 0.994753 -0.180056
v 0.297824 0.892797 -0.195832
v 0.286064 0.834390 -0.136265
v 0.260723 0.857974 -0.041581
v 0.258617 0.971360 -0.013799
v 0.276509 1.030034 -0.089015
v 0.294512 0.995719 -0.179390
v 0.294507 0.893792 -0.195404
v 0.280053 0.835452 -0.136365
v 0.251480 0.859304 -0.042194
v 0.250419 0.972646 -0.014175
v 0.271468 1.031187 -0.088673
v 0.291550 0.996785 -0.178576
v 0.290343 0.894909 -0.194863
v 0.273210 0.836681 -0.136433
v 0.241459 0.860850 -0.042909
v 0.241436 0.974131 -0.014621
v 0.265622 1.032486 -0.088310
v 0.287767 0.997961 -0.177679
v 0.285367 0.896156 -0.194274
v 0.265573 0.838086 -0.136532
v 0.230703 0.862621 -0.043788
v 0.231709 0.975822 -0.015202
v 0.259004 1.033937 -0.087988
v 0.283196 0.999254 -0.176764
v 0.279613 0.897540 -0.193702
v 0.257180 0.839674 -0.136726
v 0.219255 0.864624 -0.044894
v 0.221280 0.977729 -0.015979
v 0.251652 1.035550 -0.087773
v 0.277868 1.000674 -0.175896
v 0.273116 0.899072 -0.193212
v 0.248071 0.841455 -0.137078
v 0.207158 0.866868 -0.046288
v 0.210189 0.979858 -0.017016
v 0.243601 1.037333 -0.087729
v 0.271817 1.002230 -0.175141
v 0.265908 0.900759 -0.192868
v 0.238284 0.843435 -0.137650
v 0.194455 0.869360 -0.048032
v 0.198477 0.982218 -0.018373
v 0.234886 1.039295 -0.087920
v 0.265075 1.003930 -0.174564
v 0.258026 0.902611 -0.192734
v 0.227858 0.845625 -0.138507
v 0.181186 0.872108 -0.050187
v 0.186185 0.984817 -0.020115
v 0.225544 1.041445 -0.088411
v 0.257674 1.005784 -0.174231
v 0.249503 0.904636 -0.192878
v 0.216832 0.848031 -0.139712
v 0.167395 0.875118 -0.052815
v 0.173353 0.987662 -0.022302
v 0.215610 1.043791 -0.089265
v 0.249646 1.007802 -0.174209
v 0.240373 0.906843 -0.193362
v 0.205243 0.850662 -0.141327
v 0.167395 0.875118 -0.052815
v 0.173353 0.987663 -0.022302
v 0.215610 1.043791 -0.089265
v 0.249646 1.007802 -0.174209
v 0.240373 0.906843 -0.193362
v 0.205243 0.850662 -0.141327
v 0.156620 0.879480 -0.056323
v 0.159203 0.992629 -0.020003
v 0.202637 1.043908 -0.092447
v 0.238620 1.013794 -0.179252
v 0.227411 0.911296 -0.193496
v 0.193138 0.849105 -0.144349
v 0.143952 0.884858 -0.060866
v 0.142909 0.998176 -0.018311
v 0.187527 1.043918 -0.096406
v 0.225408 1.020371 -0.184918
v 0.212116 0.916627 -0.193742
v 0.178940 0.848124 -0.147954
v 0.130015 0.891089 -0.066294
v 0.125104 1.004137 -0.017069
v 0.170925 1.043653 -0.100982
v 0.210643 1.027366 -0.191055
v 0.195119 0.922669 -0.193945
v 0.163281 0.847553 -0.151988
v 0.115432 0.898008 -0.072458
v 0.106421 1.010348 -0.016124
v 0.153472 1.042948 -0.106015
v 0.194959 1.034613 -0.197506
v 0.177050 0.929257 -0.193953
v 0.146795 0.847227 -0.156295
v 0.100826 0.905450 -0.079206
v 0.087494 1.016642 -0.015320
v 0.135814 1.041634 -0.111347
v 0.178987 1.041947 -0.204117
v 0.158542 0.936226 -0.193612
v 0.130115 0.846981 -0.160723
v 0.086819 0.913251 -0.086390
v 0.068954 1.022853 -0.014504
v 0.118593 1.039546 -0.116817
v 0.163363 1.049200 -0.210733
v 0.140225 0.943411 -0.192767
v 0.113874 0.846649 -0.165115
v 0.074035 0.921246 -0.093859
v 0.051437 1.028817 -0.013520
v 0.102453 1.036517 -0.122267
v 0.148717 1.056208 -0.217200
v 0.122729 0.950645 -0.191266
v 0.098706 0.846067 -0.169318
v 0.063095 0.929270 -0.101462
v 0.035573 1.034366 -0.012214
v 0.088038 1.032380 -0.127537
v 0.135683 1.062803 -0.223362
v 0.106688 0.957763 -0.188953
v 0.085243 0.845069 -0.173178
v 0.054624 0.937157 -0.109049
v 0.021997 1.039336 -0.010430
v 0.075992 1.026970 -0.132469
v 0.124895 1.068819 -0.229065
v 0.092730 0.964600 -0.185676
v 0.074118 0.843490 -0.176538
v 0.049244 0.944743 -0.116471
v 0.011341 1.043560 -0.008016
v 0.066957 1.020120 -0.136902
v 0.116984 1.074091 -0.234154
v 0.081488 0.970990 -0.181280
v 0.065965 0.841165 -0.179246
vn -0.984801 0.027318 -0.171523
vn -0.944261 -0.010865 -0.329019
vn -0.985423 -0.037803 -0.165868
vn -0.989777 -0.012878 -0.142043
vn -0.991678 0.003215 -0.128702
vn -0.985258 0.137972 -0.101151
vn 0.143491 0.669706 -0.728632
vn 0.016937 -0.191343 -0.981377
vn -0.217927 -0.921650 -0.321045
vn -0.104092 -0.681725 0.724165
vn 0.181231 0.329415 0.926629
vn 0.174429 0.967089 0.185241
vn 0.143426 0.669717 -0.728634
vn 0.007240 -0.196213 -0.980535
vn -0.206582 -0.930176 -0.303474
vn -0.051357 -0.662097 0.747657
vn 0.182045 0.304630 0.934912
vn 0.179022 0.963283 0.200094
vn 0.149594 0.669499 -0.727594
vn 0.006725 -0.198757 -0.980026
vn -0.199056 -0.935211 -0.292844
vn -0.036619 -0.650756 0.758404
vn 0.171549 0.287222 0.942377
vn 0.182334 0.959955 0.212698
vn 0.160492 0.669098 -0.725638
vn 0.012921 -0.200002 -0.979710
vn -0.193704 -0.938374 -0.286241
vn -0.039499 -0.643886 0.764101
vn 0.154424 0.274038 0.949240
vn 0.184636 0.957003 0.223728
vn 0.175126 0.668507 -0.722793
vn 0.024300 -0.200591 -0.979374
vn -0.189644 -0.940453 -0.282105
vn -0.052331 -0.639508 0.767001
vn 0.132727 0.263691 0.955432
vn 0.186103 0.954366 0.233564
vn 0.192795 0.667691 -0.719041
vn 0.039854 -0.200969 -0.978787
vn -0.186386 -0.941875 -0.279521
vn -0.071590 -0.636537 0.767916
vn 0.107497 0.255505 0.960813
vn 0.186820 0.952014 0.242422
vn 0.213015 0.666604 -0.714327
vn 0.058883 -0.201450 -0.977727
vn -0.183639 -0.942888 -0.277920
vn -0.095422 -0.634324 0.767156
vn 0.079332 0.249128 0.965216
vn 0.186875 0.949926 0.250437
vn 0.235386 0.665196 -0.708596
vn 0.080870 -0.202277 -0.975984
vn -0.181208 -0.943654 -0.276913
vn -0.122732 -0.632448 0.764818
vn 0.048629 0.244378 0.968460
vn 0.186327 0.948093 0.257685
vn 0.259596 0.663412 -0.701780
vn 0.105418 -0.203639 -0.973354
vn -0.178981 -0.944277 -0.276237
vn -0.152794 -0.630608 0.760913
vn 0.015670 0.241163 0.970358
vn 0.185212 0.946516 0.264204
vn 0.261777 0.523393 -0.810884
vn 0.047509 -0.398236 -0.916052
vn -0.220027 -0.973135 -0.067796
vn -0.132201 -0.445395 0.885520
vn 0.018080 0.399227 0.916674
vn 0.206068 0.972783 0.105967
vn 0.292873 0.788686 -0.540555
vn -0.003472 -0.005876 -0.999977
vn -0.127166 -0.925341 -0.357174
vn -0.420844 -0.744704 0.517982
vn -0.136969 0.095266 0.985984
vn -0.036598 0.901098 0.432068
vn 0.304298 0.659189 -0.687657
vn -0.015628 -0.176886 -0.984107
vn -0.141660 -0.972301 -0.185912
vn -0.410436 -0.633361 0.656046
vn -0.083405 0.229315 0.969772
vn 0.022811 0.956601 0.290508
vn 0.346448 0.649263 -0.677076
vn 0.029365 -0.194750 -0.980413
vn -0.118115 -0.978835 -0.167125
vn -0.386378 -0.637073 0.666971
vn -0.066798 0.235604 0.969551
vn 0.058585 0.948769 0.310491
vn 0.380356 0.641213 -0.666465
vn 0.064707 -0.209361 -0.975695
vn -0.095280 -0.983871 -0.151396
vn -0.365225 -0.641049 0.675031
vn -0.049884 0.239152 0.969700
vn 0.085490 0.940903 0.327709
vn 0.411714 0.633995 -0.654631
vn 0.096985 -0.223373 -0.969896
vn -0.070392 -0.988136 -0.136503
vn -0.342990 -0.645400 0.682508
vn -0.031008 0.240670 0.970112
vn 0.109615 0.932376 0.344470
vn 0.444244 0.626753 -0.640178
vn 0.131402 -0.238984 -0.962092
vn -0.040835 -0.991831 -0.120843
vn -0.315783 -0.649978 0.691237
vn -0.008487 0.240267 0.970670
vn 0.135377 0.922226 0.362178
vn 0.481466 0.618473 -0.621033
vn 0.174160 -0.258949 -0.950060
vn -0.003120 -0.994707 -0.102701
vn -0.277988 -0.654119 0.703456
vn 0.019987 0.237606 0.971156
vn 0.167765 0.908841 0.381920
vn 0.527954 0.607455 -0.593518
vn 0.235492 -0.287832 -0.928276
vn 0.048434 -0.995651 -0.079578
vn -0.219384 -0.655617 0.722521
vn 0.058167 0.231758 0.971033
vn 0.214591 0.889001 0.404509
vn 0.591022 0.590020 -0.550064
vn 0.335685 -0.334149 -0.880716
vn 0.124433 -0.991118 -0.046932
vn -0.118882 -0.647058 0.753115
vn 0.112953 0.220641 0.968793
vn 0.290645 0.854976 0.429584
vn 0.683479 0.556347 -0.472583
vn 0.514328 -0.411003 -0.752691
vn 0.246640 -0.969095 0.004784
vn 0.067306 -0.602339 0.795398
vn 0.198600 0.199313 0.959600
vn 0.425577 0.784741 0.450628
vn 0.939793 -0.030843 0.340349
vn 0.906632 -0.225548 0.356577
vn 0.891540 -0.268898 0.364488
vn 0.858505 -0.100246 0.502912
vn 0.823542 -0.057117 0.564372
vn 0.934287 0.018298 0.356052
vt 0.000000 0.000000
vt 0.000000 0.000000
vt 0.000000 0.000000
vt 0.000000 0.000000
vt 0.000000 0.000000
vt 0.000000 0.000000
vt 0.047619 0.000000
vt 0.047619 0.000000
vt 0.047619 0.000000
vt 0.047619 0.000000
vt 0.047619 0.000000
vt 0.047619 0.000000
vt 0.095238 0.000000
vt 0.095238 0.000000
vt 0.095238 0.000000
vt 0.095238 0.000000
vt 0.095238 0.000000
vt 0.095238 0.000000
vt 0.142857 0.000000
vt 0.142857 0.000000
vt 0.142857 0.000000
vt 0.142857 0.000000
vt 0.142857 0.000000
vt 0.142857 0.000000
vt 0.190476 0.000000
vt 0.190476 0.000000
vt 0.190476 0.000000
vt 0.190476 0.000000
vt 0.190476 0.000000
vt 0.190476 0.000000
vt 0.238095 0.000000
vt 0.238095 0.000000
vt 0.238095 0.000000
vt 0.238095 0.000000
vt 0.238095 0.000000
vt 0.238095 0.000000
vt 0.285714 0.000000
vt 0.285714 0.000000
vt 0.285714 0.000000
vt 0.285714 0.000000
vt 0.285714 0.000000
vt 0.285714 0.000000
vt 0.333333 0.000000
vt 0.333333 0.000000
vt 0.333333 0.000000
vt 0.333333 0.000000
vt 0.333333 0.000000
vt 0.333333 0.000000
vt 0.380952 0.000000
vt 0.380952 0.000000
vt 0.380952 0.000000
vt 0.380952 0.000000
vt 0.380952 0.000000
vt 0.380952 0.000000
vt 0.428571 0.000000
vt 0.428571 0.000000
vt 0.428571 0.000000
vt 0.428571 0.000000
vt 0.428571 0.000000
vt 0.428571 0.000000
vt 0.476191 0.000000
vt 0.476191 0.000000
vt 0.476191 0.000000
vt 0.476191 0.000000
vt 0.476191 0.000000
vt 0.476191 0.000000
vt 0.523810 0.000000
vt 0.523810 0.000000
vt 0.523810 0.000000
vt 0.523810 0.000000
vt 0.523810 0.000000
vt 0.523810 0.000000
vt 0.571429 0.000000
vt 0.571429 0.000000
vt 0.571429 0.000000
vt 0.571429 0.000000
vt 0.571429 0.000000
vt 0.571429 0.000000
vt 0.619048 0.000000
vt 0.619048 0.000000
vt 0.619048 0.000000
vt 0.619048 0.000000
vt 0.619048 0.000000
vt 0.619048 0.000000
vt 0.666667 0.000000
vt 0.666667 0.000000
vt 0.666667 0.000000
vt 0.666667 0.000000
vt 0.666667 0.000000
vt 0.666667 0.000000
vt 0.714286 0.000000
vt 0.714286 0.000000
vt 0.714286 0.000000
vt 0.714286 0.000000
vt 0.714286 0.000000
vt 0.714286 0.000000
vt 0.761905 0.000000
vt 0.761905 0.000000
vt 0.761905 0.000000
vt 0.761905 0.000000
vt 0.761905 0.000000
vt 0.761905 0.000000
vt 0.809524 0.000000
vt 0.809524 0.000000
vt 0.809524 0.000000
vt 0.809524 0.000000
vt 0.809524 0.000000
vt 0.809524 0.000000
vt 0.857143 0.000000
vt 0.857143 0.000000
vt 0.857143 0.000000
vt 0.857143 0.000000
vt 0.857143 0.000000
vt 0.857143 0.000000
vt 0.904762 0.000000
vt 0.904762 0.000000
vt 0.904762 0.000000
vt 0.904762 0.000000
vt 0.904762 0.000000
vt 0.904762 0.000000
vt 0.952381 0.000000
vt 0.952381 0.000000
vt 0.952381 0.000000
vt 0.952381 0.000000
vt 0.952381 0.000000
vt 0.952381 0.000000
vt 1.000000 0.000000
vt 1.000000 0.000000
vt 1.000000 0.000000
vt 1.000000 0.000000
vt 1.000000 0.000000
vt 1.000000 0.000000
f 1/1/1 7/7/7 2/2/2
f 2/2/2 7/7/7 8/8/8
f 2/2/2 8/8/8 3/3/3
f 3/3/3 8/8/8 9/9/9
f 3/3/3 9/9/9 4/4/4
f 4/4/4 9/9/9 10/10/10
f 4/4/4 10/10/10 5/5/5
f 5/5/5 10/10/10 11/11/11
f 5/5/5 11/11/11 6/6/6
f 6/6/6 11/11/11 12/12/12
f 6/6/6 12/12/12 1/1/1
f 1/1/1 12/12/12 7/7/7
f 7/7/7 13/13/13 8/8/8
f 8/8/8 13/13/13 14/14/14
f 8/8/8 14/14/14 9/9/9
f 9/9/9 14/14/14 15/15/15
f 9/9/9 15/15/15 10/10/10
f 10/10/10 15/15/15 16/16/16
f 10/10/10 16/16/16 11/11/11
f 11/11/11 16/16/16 17/17/17
f 11/11/11 17/17/17 12/12/12
f 12/12/12 17/17/17 18/18/18
f 12/12/12 18/18/18 7/7/7
f 7/7/7 18/18/18 13/13/13
f 13/13/13 19/19/19 14/14/14
f 14/14/14 19/19/19 20/20/20
f 14/14/14 20/20/20 15/15/15
f 15/15/15 20/20/20 21/21/21
f 15/15/15 21/21/21 16/16/16
f 16/16/16 21/21/21 22/22/22
f 16/16/16 22/22/22 17/17/17
f 17/17/17 22/22/22 23/23/23
f 17/17/17 23/23/23 18/18/18
f 18/18/18 23/23/23 24/24/24
f 18/18/18 24/24/24 13/13/13
f 13/13/13 24/24/24 19/19/19
f 19/19/19 25/25/25 20/20/20
f 20/20/20 25/25/25 26/26/26
f 20/20/20 26/26/26 21/21/21
f 21/21/21 26/26/26 27/27/27
f 21/21/21 27/27/27 22/22/22
f 22/22/22 27/27/27 28/28/28
f 22/22/22 28/28/28 23/23/23
f 23/23/23 28/28/28 29/29/29
f 23/23/23 29/29/29 24/24/24
f 24/24/24 29/29/29 30/30/30
f 24/24/24 30/30/30 19/19/19
f 19/19/19 30/30/30 25/25/25
f 25/25/25 31/31/31 26/26/26
f 26/26/26 31/31/31 32/32/32
f 26/26/26 32/32/32 27/27/27
f 27/27/27 32/32/32 33/33/33
f 27/27/27 33/33/33 28/28/28
f 28/28/28 33/33/33 34/34/34
f 28/28/28 34/34/34 29/29/29
f 29/29/29 34/34/34 35/35/35
f 29/29/29 35/35/35 30/30/30
f 30/30/30 35/35/35 36/36/36
f 30/30/30 36/36/36 25/25/25
f 25/25/25 36/36/36 31/31/31
f 31/31/31 37/37/37 32/32/32
f 32/32/32 37/37/37 38/38/38
f 32/32/32 38/38/38 33/33/33
f 33/33/33 38/38/38 39/39/39
f 33/33/33 39/39/39 34/34/34
f 34/34/34 39/39/39 40/40/40
f 34/34/34 40/40/40 35/35/35
f 35/35/35 40/40/40 41/41/41
f 35/35/35 41/41/41 36/36/36
f 36/36/36 41/41/41 42/42/42
f 36/36/36 42/42/42 31/31/31
f 31/31/31 42/42/42 37/37/37
f 37/37/37 43/43/43 38/38/38
f 38/38/38 43/43/43 44/44/44
f 38/38/38 44/44/44 39/39/39
f 39/39/39 44/44/44 45/45/45
f 39/39/39 45/45/45 40/40/40
f 40/40/40 45/45/45 46/46/46
f 40/40/40 46/46/46 41/41/41
f 41/41/41 46/46/46 47/47/47
f 41/41/41 47/47/47 42/42/42
f 42/42/42 47/47/47 48/48/48
f 42/42/42 48/48/48 37/37/37
f 37/37/37 48/48/48 43/43/43
f 43/43/43 49/49/49 44/44/44
f 44/44/44 49/49/49 50/50/50
f 44/44/44 50/50/50 45/45/45
f 45/45/45 50/50/50 51/51/51
f 45/45/45 51/51/51 46/46/46
f 46/46/46 51/51/51 52/52/52
f 46/46/46 52/52/52 47/47/47
f 47/47/47 52/52/52 53/53/53
f 47/47/47 53/53/53 48/48/48
f 48/48/48 53/53/53 54/54/54
f 48/48/48 54/54/54 43/43/43
f 43/43/43 54/54/54 49/49/49
f 49/49/49 55/55/55 50/50/50
f 50/50/50 55/55/55 56/56/56
f 50/50/50 56/56/56 51/51/51
f 51/51/51 56/56/56 57/57/57
f 51/51/51 57/57/57 52/52/52
f 52/52/52 57/57/57 58/58/58
f 52/52/52 58/58/58 53/53/53
f 53/53/53 58/58/58 59/59/59
f 53/53/53 59/59/59 54/54/54
f 54/54/54 59/59/59 60/60/60
f 54/54/54 60/60/60 49/49/49
f 49/49/49 60/60/60 55/55/55
f 55/55/55 61/61/61 56/56/56
f 56/56/56 61/61/61 62/62/62
f 56/56/56 62/62/62 57/57/57
f 57/57/57 62/62/62 63/63/63
f 57/57/57 63/63/63 58/58/58
f 58/58/58 63/63/63 64/64/64
f 58/58/58 64/64/64 59/59/59
f 59/59/59 64/64/64 65/65/65
f 59/59/59 65/65/65 60/60/60
f 60/60/60 65/65/65 66/66/66
f 60/60/60 66/66/66 55/55/55
f 55/55/55 66/66/66 61/61/61
f 61/61/61 67/67/67 62/62/62
f 62/62/62 67/67/67 68/68/68
f 62/62/62 68/68/68 63/63/63
f 63/63/63 68/68/68 69/69/69
f 63/63/63 69/69/69 64/64/64
f 64/64/64 69/69/69 70/70/70
f 64/64/64 70/70/70 65/65/65
f 65/65/65 70/70/70 71/71/71
f 65/65/65 71/71/71 66/66/66
f 66/66/66 71/71/71 72/72/72
f 66/66/66 72/72/72 61/61/61
f 61/61/61 72/72/72 67/67/67
f 67/67/67 73/73/73 68/68/68
f 68/68/68 73/73/73 74/74/74
f 68/68/68 74/74/74 69/69/69
f 69/69/69 74/74/74 75/75/75
f 69/69/69 75/75/75 70/70/70
f 70/70/70 75/75/75 76/76/76
f 70/70/70 76/76/76 71/71/71
f 71/71/71 76/76/76 77/77/77
f 71/71/71 77/77/77 72/72/72
f 72/72/72 77/77/77 78/78/78
f 72/72/72 78/78/78 67/67/67
f 67/67/67 78/78/78 73/73/73
f 73/73/73 79/79/79 74/74/74
f 74/74/74 79/79/79 80/80/80
f 74/74/74 80/80/80 75/75/75
f 75/75/75 80/80/80 81/81/81
f 75/75/75 81/81/81 76/76/76
f 76/76/76 81/81/81 82/82/82
f 76/76/76 82/82/82 77/77/77
f 77/77/77 82/82/82 83/83/83
f 77/77/77 83/83/83 78/78/78
f 78/78/78 83/83/83 84/84/84
f 78/78/78 84/84/84 73/73/73
f 73/73/73 84/84/84 79/79/79
f 79/79/79 85/85/85 80/80/80
f 80/80/80 85/85/85 86/86/86
f 80/80/80 86/86/86 81/81/81
f 81/81/81 86/86/86 87/87/87
f 81/81/81 87/87/87 82/82/82
f 82/82/82 87/87/87 88/88/88
f 82/82/82 88/88/88 83/83/83
f 83/83/83 88/88/88 89/89/89
f 83/83/83 89/89/89 84/84/84
f 84/84/84 89/89/89 90/90/90
f 84/84/84 90/90/90 79/79/79
f 79/79/79 90/90/90 85/85/85
f 85/85/85 91/91/91 86/86/86
f 86/86/86 91/91/91 92/92/92
f 86/86/86 92/92/92 87/87/87
f 87/87/87 92/92/92 93/93/93
f 87/87/87 93/93/93 88/88/88
f 88/88/88 93/93/93 94/94/94
f 88/88/88 94/94/94 89/89/89
f 89/89/89 94/94/94 95/95/95
f 89/89/89 95/95/95 90/90/90
f 90/90/90 95/95/95 96/96/96
f 90/90/90 96/96/96 85/85/85
f 85/85/85 96/96/96 91/91/91
f 91/91/91 97/97/97 92/92/92
f 92/92/92 97/97/97 98/98/98
f 92/92/92 98/98/98 93/93/93
f 93/93/93 98/98/98 99/99/99
f 93/93/93 99/99/99 94/94/94
f 94/94/94 99/99/99 100/100/100
f 94/94/94 100/100/100 95/95/95
f 95/95/95 100/100/100 101/101/101
f 95/95/95 101/101/101 96/96/96
f 96/96/96 101/101/101 102/102/102
f 96/96/96 102/102/102 91/91/91
f 91/91/91 102/102/102 97/97/97
f 97/97/97 103/103/103 98/98/98
f 98/98/98 103/103/103 104/104/104
f 98/98/98 104/104/104 99/99/99
f 99/99/99 104/104/104 105/105/105
f 99/99/99 105/105/105 100/100/100
f 100/100/100 105/105/105 106/106/106
f 100/100/100 106/106/106 101/101/101
f 101/101/101 106/106/106 107/107/107
f 101/101/101 107/107/107 102/102/102
f 102/102/102 107/107/107 108/108/108
f 102/102/102 108/108/108 97/97/97
f 97/97/97 108/108/108 103/103/103
f 103/103/103 109/109/109 104/104/104
f 104/104/104 109/109/109 110/110/110
f 104/104/104 110/110/110 105/105/105
f 105/105/105 110/110/110 111/111/111
f 105/105/105 111/111/111 106/106/106
f 106/106/106 111/111/111 112/112/112
f 106/106/106 112/112/112 107/107/107
f 107/107/107 112/112/112 113/113/113
f 107/107/107 113/113/113 108/108/108
f 108/108/108 113/113/113 114/114/114
f 108/108/108 114/114/114 103/103/103
f 103/103/103 114/114/114 109/109/109
f 109/109/109 115/115/115 110/110/110
f 110/110/110 115/115/115 116/116/116
f 110/110/110 116/116/116 111/111/111
f 111/111/111 116/116/116 117/117/117
f 111/111/111 117/117/117 112/112/112
f 112/112/112 117/117/117 118/118/118
f 112/112/112 118/118/118 113/113/113
f 113/113/113 118/118/118 119/119/119
f 113/113/113 119/119/119 114/114/114
f 114/114/114 119/119/119 120/120/120
f 114/114/114 120/120/120 109/109/109
f 109/109/109 120/120/120 115/115/115
f 115/115/115 121/121/121 116/116/116
f 116/116/116 121/121/121 122/122/122
f 116/116/116 122/122/122 117/117/117
f 117/117/117 122/122/122 123/123/123
f 117/117/117 123/123/123 118/118/118
f 118/118/118 123/123/123 124/124/124
f 118/118/118 124/124/124 119/119/119
f 119/119/119 124/124/124 125/125/125
f 119/119/119 125/125/125 120/120/120
f 120/120/120 125/125/125 126/126/126
f 120/120/120 126/126/126 115/115/115
f 115/115/115 126/126/126 121/121/121
f 121/121/121 127/127/127 122/122/122
f 122/122/122 127/127/127 128/128/128
f 122/122/122 128/128/128 123/123/123
f 123/123/123 128/128/128 129/129/129
f 123/123/123 129/129/129 124/124/124
f 124/124/124 129/129/129 130/130/130
f 124/124/124 130/130/130 125/125/125
f 125/125/125 130/130/130 131/131/131
f 125/125/125 131/131/131 126/126/126
f 126/126/126 131/131/131 132/132/132
f 126/126/126 132/132/132 121/121/121
f 121/121/121 132/132/132 127/127/127
f 5/5/5 6/6/6 1/1/1
f 4/4/4 5/5/5 1/1/1
f 3/3/3 4/4/4 1/1/1
f 1/1/1 2/2/2 3/3/3
f 127/127/127 132/132/132 131/131/131
f 127/127/127 131/131/131 130/130/130
f 127/127/127 130/130/130 129/129/129
f 129/129/129 128/128/128 127/127/127

